# xmcd
#
# Track frame offsets: 
#        150
#        14202
#        24655
#        41766
#        55778
#        79577
#        90666
#        107293
#        121017
#        134216
#        147779
#        159521
#        172725
#        194581
#        203817
#        216313
#
# Disc length: 3096 seconds
#
# Revision: 18
# Processed by: cddbd v1.5.2PL0 Copyright (c) Steve Scherf et al.
# Submitted via: ExactAudioCopy v1.3
#
DISCID=dd0c1610
DTITLE=Eric Clapton - mit Mark Knopfler, John Mayer, Willie Nelson, Tom
DTITLE=Petty, Don White (Gastmusiker) - 2014 - Clapton - The Breeze (
DTITLE=An Appreciation of JJ Cale)
DYEAR=2014
DGENRE=Blues
TTITLE0=Call Me The Breeze
TTITLE1=Rock And Roll Records
TTITLE2=Someday
TTITLE3=Lies
TTITLE4=Sensitive Kind
TTITLE5=Cajun Moon
TTITLE6=Magnolia
TTITLE7=I Got The Same Old Blues
TTITLE8=Songbird
TTITLE9=Since You Said Goodbye
TTITLE10=I'll Be There (If You Ever Want Me)
TTITLE11=The Old Man And Me
TTITLE12=Train To Nowhere
TTITLE13=Starbound
TTITLE14=Don't Wait
TTITLE15=Crying Eyes
EXTD=Location:  - UPC: 602537863082 - Catalogue number: 378 630-8 - Label
EXTD=: Bushbranch Records,Surfdog Records - ASIN: B00KOEQTJI - Release D
EXTD=ate: 2014 07 28 - Discogs: [a17827],[a3921830],[m713135],[r5919211
EXTD=] - MUSICBRAINZ_ALBUMID: d60c119e-9af0-46c3-829d-9309a5c606e
EXTT0=
EXTT1=
EXTT2=
EXTT3=
EXTT4=
EXTT5=
EXTT6=
EXTT7=
EXTT8=
EXTT9=
EXTT10=
EXTT11=
EXTT12=
EXTT13=
EXTT14=
EXTT15=
PLAYORDER=
